<svg width="28" height="28" viewBox="0 0 28 28" fill="none" xmlns="http://www.w3.org/2000/svg">
<path fill-rule="evenodd" clip-rule="evenodd" d="M16.2174 2.71902C16.3947 2.94671 16.4272 3.2717 16.4921 3.92169C16.6156 5.15606 16.6773 5.77325 17.0258 6.03672C17.1619 6.13968 17.3222 6.20606 17.4913 6.22954C17.924 6.28965 18.4041 5.89687 19.3642 5.11133C19.8697 4.69769 20.1225 4.49087 20.4089 4.45521C20.5241 4.44087 20.6409 4.4467 20.7541 4.47243C21.0355 4.5364 21.2664 4.76735 21.7283 5.22924L22.7707 6.27162C23.2326 6.73352 23.4636 6.96448 23.5275 7.24586C23.5533 7.35906 23.5591 7.47588 23.5447 7.59109C23.5091 7.87744 23.3023 8.13022 22.8886 8.6358C22.1031 9.59593 21.7103 10.076 21.7704 10.5087C21.7939 10.6778 21.8602 10.838 21.9632 10.9742C22.2267 11.3227 22.8439 11.3844 24.0783 11.5078C24.7283 11.5728 25.0533 11.6053 25.281 11.7826C25.3726 11.8539 25.4511 11.9407 25.5129 12.0389C25.6666 12.2831 25.6666 12.6097 25.6666 13.263V14.7372C25.6666 15.3903 25.6666 15.7169 25.513 15.961C25.4511 16.0593 25.3726 16.1461 25.2809 16.2175C25.0532 16.3947 24.7283 16.4272 24.0784 16.4922C22.8443 16.6156 22.2272 16.6773 21.9638 17.0256C21.8607 17.1619 21.7943 17.3223 21.7708 17.4915C21.7108 17.9241 22.1035 18.404 22.8888 19.3639C23.3023 19.8693 23.5091 20.122 23.5448 20.4083C23.5591 20.5236 23.5533 20.6405 23.5275 20.7538C23.4635 21.0351 23.2327 21.266 22.7709 21.7277L21.7284 22.7703C21.2665 23.2322 21.0355 23.4631 20.7542 23.5271C20.6409 23.5528 20.5241 23.5586 20.4089 23.5443C20.1226 23.5086 19.8698 23.3018 19.3642 22.8882L19.3642 22.8882C18.4041 22.1026 17.924 21.7099 17.4913 21.77C17.3223 21.7934 17.162 21.8598 17.0258 21.9628C16.6774 22.2263 16.6156 22.8435 16.4922 24.078C16.4272 24.7283 16.3946 25.0534 16.2173 25.2811C16.146 25.3726 16.0594 25.4511 15.9612 25.5129C15.717 25.6667 15.3903 25.6667 14.7369 25.6667H13.2629C12.6097 25.6667 12.2831 25.6667 12.0389 25.5129C11.9406 25.4511 11.8539 25.3726 11.7826 25.281C11.6053 25.0533 11.5728 24.7283 11.5078 24.0783C11.3844 22.8439 11.3226 22.2267 10.9742 21.9632C10.838 21.8603 10.6778 21.7939 10.5087 21.7704C10.076 21.7103 9.59589 22.1031 8.63574 22.8887C8.13014 23.3023 7.87735 23.5092 7.59098 23.5448C7.47579 23.5592 7.35899 23.5533 7.2458 23.5276C6.9644 23.4636 6.73344 23.2327 6.27153 22.7708L6.27152 22.7708L5.22918 21.7284L5.22916 21.7284C4.76726 21.2665 4.53631 21.0356 4.47235 20.7542C4.44661 20.641 4.44079 20.5242 4.45513 20.409C4.49078 20.1226 4.69761 19.8698 5.11126 19.3642L5.11127 19.3642C5.89683 18.4041 6.28961 17.924 6.22951 17.4913C6.20602 17.3222 6.13964 17.162 6.03669 17.0258C5.77322 16.6773 5.15603 16.6156 3.92165 16.4922C3.27167 16.4272 2.94668 16.3947 2.71899 16.2174C2.62738 16.1461 2.5489 16.0594 2.48705 15.9611C2.33331 15.7169 2.33331 15.3903 2.33331 14.7371L2.33331 13.2631C2.33331 12.6097 2.33331 12.283 2.48711 12.0388C2.54893 11.9406 2.62736 11.854 2.7189 11.7827C2.94662 11.6053 3.27168 11.5728 3.92179 11.5078C5.15644 11.3844 5.77376 11.3226 6.03723 10.974C6.14009 10.8379 6.20642 10.6778 6.22992 10.5088C6.29012 10.076 5.89723 9.59584 5.11147 8.63546L5.11147 8.63546C4.69767 8.12971 4.49078 7.87684 4.45516 7.59039C4.44085 7.4753 4.44667 7.35859 4.47237 7.2455C4.53631 6.96401 4.76733 6.73299 5.22937 6.27095L6.27158 5.22874C6.7335 4.76682 6.96445 4.53586 7.24585 4.4719C7.35904 4.44617 7.47585 4.44034 7.59104 4.45468C7.8774 4.49033 8.13023 4.69719 8.63588 5.1109C9.59591 5.89638 10.0759 6.28913 10.5085 6.22911C10.6778 6.20564 10.8381 6.13921 10.9744 6.03616C11.3227 5.77269 11.3844 5.15564 11.5078 3.92153C11.5728 3.2717 11.6053 2.94678 11.7825 2.71912C11.8539 2.62744 11.9407 2.5489 12.039 2.48701C12.2831 2.33334 12.6097 2.33334 13.2628 2.33334H14.7371C15.3903 2.33334 15.7169 2.33334 15.9611 2.48708C16.0593 2.54893 16.1461 2.62741 16.2174 2.71902ZM14 18.6667C16.5773 18.6667 18.6666 16.5773 18.6666 14C18.6666 11.4227 16.5773 9.33334 14 9.33334C11.4227 9.33334 9.33331 11.4227 9.33331 14C9.33331 16.5773 11.4227 18.6667 14 18.6667Z" fill="#D9D9D9"/>
</svg>
