<svg width="28" height="28" viewBox="0 0 28 28" fill="none" xmlns="http://www.w3.org/2000/svg">
<path fill-rule="evenodd" clip-rule="evenodd" d="M3.21199 3.21202C2.33331 4.0907 2.33331 5.50492 2.33331 8.33335V19.6667C2.33331 22.4951 2.33331 23.9093 3.21199 24.788C4.09067 25.6667 5.50489 25.6667 8.33332 25.6667H19.6666C22.4951 25.6667 23.9093 25.6667 24.788 24.788C25.6666 23.9093 25.6666 22.4951 25.6666 19.6667V8.33334C25.6666 5.50492 25.6666 4.0907 24.788 3.21202C23.9093 2.33334 22.4951 2.33334 19.6666 2.33334H8.33331C5.50489 2.33334 4.09067 2.33334 3.21199 3.21202ZM20.6654 11.0547C20.9717 10.5952 20.8475 9.97431 20.388 9.66796C19.9285 9.36161 19.3076 9.48578 19.0013 9.94531L15.2904 15.5115L14.4984 13.9274C13.8116 12.5539 11.8972 12.4347 11.0454 13.7124L7.3346 19.2786C7.02824 19.7382 7.15242 20.359 7.61195 20.6654C8.07148 20.9717 8.69235 20.8476 8.9987 20.388L12.7095 14.8218L13.5016 16.406C14.1884 17.7795 16.1027 17.8987 16.9545 16.6209L20.6654 11.0547Z" fill="#E2E2E2"/>
</svg>
